<svg width="26" height="26" viewBox="0 0 26 26" fill="none" xmlns="http://www.w3.org/2000/svg">
<path d="M26 13C26 20.1797 20.1797 26 13 26C5.8203 26 0 20.1797 0 13C0 5.8203 5.8203 0 13 0C20.1797 0 26 5.8203 26 13Z" fill="#049813"/>
<path fill-rule="evenodd" clip-rule="evenodd" d="M15.3452 5.97527C15.5681 7.12509 15.0787 9.51855 14.1729 11.704C12.619 15.4538 12.6146 15.4575 9.74078 15.0778C6.38197 14.6342 5.27245 15.7229 6.46317 18.2967C7.14158 19.7629 7.7816 20 11.0681 20C14.3021 20 15.0042 19.7505 15.6663 18.3636C16.9943 15.5825 17.9592 11.0676 17.9968 7.45455C18.0286 4.42909 17.8425 4 16.4975 4C15.2249 4 15.0278 4.33818 15.3452 5.97527Z" fill="#D9D9D9"/>
<path d="M5.984 10.76C6.496 10.3173 6.89867 9.95467 7.192 9.672C7.49067 9.384 7.73867 9.08533 7.936 8.776C8.13333 8.46667 8.232 8.15733 8.232 7.848C8.232 7.528 8.15467 7.27733 8 7.096C7.85067 6.91467 7.61333 6.824 7.288 6.824C6.97333 6.824 6.728 6.92533 6.552 7.128C6.38133 7.32533 6.29067 7.592 6.28 7.928H5.4C5.416 7.32 5.59733 6.856 5.944 6.536C6.296 6.21067 6.74133 6.048 7.28 6.048C7.86133 6.048 8.31467 6.208 8.64 6.528C8.97067 6.848 9.136 7.27467 9.136 7.808C9.136 8.192 9.03733 8.56267 8.84 8.92C8.648 9.272 8.416 9.58933 8.144 9.872C7.87733 10.1493 7.536 10.472 7.12 10.84L6.76 11.16H9.296V11.92H5.408V11.256L5.984 10.76Z" fill="white"/>
</svg>
