<svg width="24" height="24" viewBox="0 0 24 24" fill="none" xmlns="http://www.w3.org/2000/svg">
<ellipse cx="12" cy="12.1073" rx="12" ry="11.601" fill="#049813"/>
<path fill-rule="evenodd" clip-rule="evenodd" d="M7.48765 15.2C7.22763 14.8061 7.34719 14.2829 7.75469 14.0315L15.1332 9.47996C15.5407 9.22858 16.0819 9.34416 16.3419 9.73812C16.6019 10.1321 16.4824 10.6552 16.0749 10.9066L8.69632 15.4582C8.28881 15.7095 7.74768 15.594 7.48765 15.2Z" fill="white"/>
<path fill-rule="evenodd" clip-rule="evenodd" d="M14.3287 15.7199C13.8569 15.6181 13.5598 15.1659 13.6651 14.7098L14.5586 10.8382L10.5505 9.9908C10.0782 9.89097 9.77912 9.43994 9.88239 8.9834C9.98566 8.52687 10.4522 8.23771 10.9244 8.33754L15.7912 9.36643C16.0186 9.4145 16.2169 9.54817 16.3421 9.73787C16.4673 9.92757 16.5092 10.1577 16.4585 10.3773L15.3736 15.0783C15.2683 15.5344 14.8005 15.8216 14.3287 15.7199Z" fill="white"/>
</svg>
